<svg xmlns="http://www.w3.org/2000/svg" width="39" height="39" viewBox="0 0 39 39"><defs><style>.a,.d{fill:none;}.a{stroke:#12ff9f;stroke-width:2px;}.b{fill:#12ff9f;}.c{stroke:none;}</style></defs><g transform="translate(-17 -79)"><g class="a" transform="translate(17 79)"><circle class="c" cx="19.5" cy="19.5" r="19.5"/><circle class="d" cx="19.5" cy="19.5" r="18.5"/></g><g transform="translate(26.127 89.566)"><path class="b" d="M319.795,18.563A2.563,2.563,0,1,1,317.232,16,2.564,2.564,0,0,1,319.795,18.563Zm0,0" transform="translate(-303.034 -15.408)"/><path class="b" d="M301.823,6.31a3.155,3.155,0,1,1,3.155-3.155A3.158,3.158,0,0,1,301.823,6.31Zm0-5.127a1.972,1.972,0,1,0,1.972,1.972,1.974,1.974,0,0,0-1.972-1.972Zm0,0" transform="translate(-287.625)"/><path class="b" d="M319.795,359.9a2.563,2.563,0,1,1-2.563-2.564A2.563,2.563,0,0,1,319.795,359.9Zm0,0" transform="translate(-303.034 -344.12)"/><path class="b" d="M301.823,347.642a3.155,3.155,0,1,1,3.155-3.155A3.158,3.158,0,0,1,301.823,347.642Zm0-5.127a1.972,1.972,0,1,0,1.972,1.972A1.974,1.974,0,0,0,301.823,342.515Zm0,0" transform="translate(-287.625 -328.712)"/><path class="b" d="M21.127,189.231a2.564,2.564,0,1,1-2.564-2.563A2.564,2.564,0,0,1,21.127,189.231Zm0,0" transform="translate(-15.409 -179.766)"/><path class="b" d="M3.155,176.978a3.155,3.155,0,1,1,3.155-3.155,3.158,3.158,0,0,1-3.155,3.155Zm0-5.127a1.972,1.972,0,1,0,1.972,1.972,1.974,1.974,0,0,0-1.972-1.972Zm0,0" transform="translate(0 -164.358)"/><path class="b" d="M115.138,95.966a.789.789,0,0,1-.391-1.474l7.319-4.173a.789.789,0,1,1,.781,1.371l-7.319,4.173A.784.784,0,0,1,115.138,95.966Zm0,0" transform="translate(-110.12 -86.879)"/><path class="b" d="M122.478,271.97a.784.784,0,0,1-.39-.1l-7.319-4.173a.789.789,0,0,1,.781-1.371l7.319,4.173a.789.789,0,0,1-.391,1.474Zm0,0" transform="translate(-110.142 -256.375)"/></g></g></svg>