<svg xmlns="http://www.w3.org/2000/svg" width="39" height="39" viewBox="0 0 39 39"><defs><style>.a,.d{fill:none;}.a{stroke:#12ff9f;stroke-width:2px;}.b{fill:#12ff9f;}.c{stroke:none;}</style></defs><g transform="translate(-65 -79)"><g class="a" transform="translate(65 79)"><circle class="c" cx="19.5" cy="19.5" r="19.5"/><circle class="d" cx="19.5" cy="19.5" r="18.5"/></g><g transform="translate(73.672 29.881)"><g transform="translate(0 61)"><path class="b" d="M19.371,61H1.867A1.87,1.87,0,0,0,0,62.867V75.31a1.87,1.87,0,0,0,1.867,1.867h17.5a1.87,1.87,0,0,0,1.867-1.867V62.867A1.87,1.87,0,0,0,19.371,61Zm-.258,1.244L10.658,70.7,2.13,62.244ZM1.244,75.053V63.118L7.237,69.06Zm.88.88,6-6,2.1,2.083a.622.622,0,0,0,.878,0l2.049-2.049,5.964,5.964Zm17.869-.88-5.964-5.964,5.964-5.964Z" transform="translate(0 -61)"/></g></g></g></svg>